<svg width="40" height="40" viewBox="0 0 40 40" fill="none" xmlns="http://www.w3.org/2000/svg">
<path fill-rule="evenodd" clip-rule="evenodd" d="M20 0C8.955 0 0 8.95333 0 20C0 28.4733 5.27167 35.71 12.7117 38.6233C12.5367 37.0417 12.3783 34.615 12.7817 32.8883C13.145 31.3267 15.1267 22.9467 15.1267 22.9467C15.1267 22.9467 14.5283 21.7483 14.5283 19.9767C14.5283 17.1967 16.14 15.12 18.1467 15.12C19.8517 15.12 20.6767 16.4017 20.6767 17.9367C20.6767 19.6517 19.585 22.2167 19.02 24.595C18.5483 26.585 20.0183 28.21 21.9817 28.21C25.5367 28.21 28.2683 24.4617 28.2683 19.0517C28.2683 14.2633 24.8283 10.915 19.915 10.915C14.225 10.915 10.885 15.1833 10.885 19.5933C10.885 21.3117 11.5467 23.1567 12.3733 24.1567C12.5367 24.355 12.56 24.53 12.5117 24.7317L11.9567 26.9983C11.8683 27.365 11.6667 27.4433 11.2867 27.2667C8.78833 26.1033 7.22667 22.4517 7.22667 19.5183C7.22667 13.21 11.81 7.415 20.4417 7.415C27.38 7.415 32.7717 12.36 32.7717 18.9667C32.7717 25.86 28.4267 31.4067 22.3933 31.4067C20.3667 31.4067 18.4617 30.355 17.81 29.11L16.5633 33.865C16.1117 35.6033 14.8933 37.7817 14.0767 39.1083C15.95 39.6867 17.9383 40 20 40C31.045 40 40 31.045 40 20C40 8.95333 31.045 0 20 0V0Z" fill="white"/>
</svg>
